<svg id="Layer_1" data-name="Layer 1" xmlns="http://www.w3.org/2000/svg" viewBox="0 0 202.44 229.3"><defs><style>.cls-1{fill:#f6006a;}.cls-2{fill:none;stroke:#000;stroke-miterlimit:10;}</style></defs><title>die</title><path class="cls-1" d="M28.56,70.11V170.36a14.38,14.38,0,0,0,7.2,12.47L122.58,233a14.41,14.41,0,0,0,14.4,0l86.82-50.13a14.38,14.38,0,0,0,7.2-12.47V70.11a14.39,14.39,0,0,0-7.2-12.47L137,7.51a14.41,14.41,0,0,0-14.4,0L35.76,57.64A14.39,14.39,0,0,0,28.56,70.11Z" transform="translate(-28.56 -5.58)"/><line class="cls-2" x1="28.38" y1="73.57" x2="80.8" y2="101.43"/><line class="cls-2" x1="180.05" y1="73.19" x2="128.9" y2="101.44"/><line class="cls-2" x1="102.12" y1="192.17" x2="101.74" y2="137.43"/><circle cx="54.72" cy="53.06" r="8.29"/><circle cx="101.48" cy="53.06" r="8.29"/><circle cx="102.14" cy="24.64" r="8.29"/><circle cx="102.05" cy="83.4" r="8.29"/><circle cx="148.47" cy="53.97" r="8.29"/><circle cx="154.47" cy="140.97" r="8.29"/><circle cx="23.47" cy="101.97" r="8.29"/><circle cx="46.47" cy="140.97" r="8.29"/><circle cx="71.47" cy="184.97" r="8.29"/></svg>