<svg id="Layer_1" data-name="Layer 1" xmlns="http://www.w3.org/2000/svg" viewBox="0 0 176.63 233.95"><title>ghost</title><path d="M159,220.68l-15.57-16.41a11.31,11.31,0,0,0-16.87.1l-26.69,28.8a11.31,11.31,0,0,1-17.06-.1L56.88,204.48a11.31,11.31,0,0,0-16.88-.3l-16.48,17C15.69,229.3,3,223.09,3,211.16V92C3-26.59,179.63-26.59,179.63,92V210.73C179.63,222.72,166.82,228.91,159,220.68Z" transform="translate(-3 -3.05)" style="fill:#00e5fe"/><circle cx="49.72" cy="73.21" r="20.93"/><circle cx="128.22" cy="73.21" r="20.93"/><ellipse cx="87.66" cy="117.7" rx="9.16" ry="11.78"/></svg>
