<svg xmlns="http://www.w3.org/2000/svg" viewBox="0 0 277.05 252.99"><title>Asset 5</title><g id="Layer_2" data-name="Layer 2"><g id="Layer_1-2" data-name="Layer 1"><path d="M266.49,112.58c0,187.21-260,187.21-260,0v.14c0-10.25,260-10.25,260,0ZM28.82,5.89,1.6,53A11.78,11.78,0,0,0,11.8,70.72H66.25A11.78,11.78,0,0,0,76.45,53L49.23,5.89A11.79,11.79,0,0,0,28.82,5.89Zm199,0L200.6,53a11.78,11.78,0,0,0,10.2,17.68h54.45A11.78,11.78,0,0,0,275.45,53L248.23,5.89A11.79,11.79,0,0,0,227.82,5.89Z"/></g></g></svg>