<svg xmlns="http://www.w3.org/2000/svg" viewBox="0 0 192.04 182.64"><defs><style>.cls-1{fill:#ff0;}</style></defs><title>twinkle</title><g id="inner"><polygon class="cls-1" points="46.87 116.93 7.47 72.19 65.64 59.15 96.02 7.85 126.39 59.15 184.57 72.19 145.16 116.93 150.74 176.28 96.02 152.63 41.29 176.28 46.87 116.93"/><path class="cls-1" d="M130,44.39l26.05,44,1.76,3,3.38.76,49.9,11.18-33.8,38.37L175,144.26l.33,3.45,4.78,50.91-46.93-20.29L130,177l-3.17,1.37L79.87,198.62l4.79-50.91.32-3.45-2.28-2.59L48.9,103.3,98.8,92.12l3.37-.76,1.76-3,26-44m0-15.71L97.05,84.31,34,98.44,76.69,147l-6,64.36L130,185.67l59.34,25.65-6-64.36L226,98.44,162.92,84.31,130,28.68Z" transform="translate(-33.96 -28.68)"/></g><g id="outline"><path d="M130,44.39l26.05,44,1.76,3,3.38.76,49.9,11.18-33.8,38.37L175,144.26l.33,3.45,4.78,50.91-46.93-20.29L130,177l-3.17,1.37L79.87,198.62l4.79-50.91.32-3.45-2.28-2.59L48.9,103.3,98.8,92.12l3.37-.76,1.76-3,26-44m0-15.71L97.05,84.31,34,98.44,76.69,147l-6,64.36L130,185.67l59.34,25.65-6-64.36L226,98.44,162.92,84.31,130,28.68Z" transform="translate(-33.96 -28.68)"/></g></svg>